<?xml version="1.0" standalone="no"?>
<!DOCTYPE svg PUBLIC "-//W3C//DTD SVG 20010904//EN"
 "http://www.w3.org/TR/2001/REC-SVG-20010904/DTD/svg10.dtd">
<svg version="1.0" xmlns="http://www.w3.org/2000/svg"
 width="180.000000pt" height="180.000000pt" viewBox="0 0 180.000000 180.000000"
 preserveAspectRatio="xMidYMid meet">
<metadata>
Created by potrace 1.11, written by Peter Selinger 2001-2013
</metadata>
<g transform="translate(0.000000,180.000000) scale(0.100000,-0.100000)"
fill="#000000" stroke="none">
<path d="M0 900 l0 -900 138 0 139 0 2 141 c2 143 9 179 39 213 26 28 87 56
124 56 49 0 103 -30 104 -58 1 -13 10 -30 20 -38 11 -9 13 -12 6 -9 -7 4 -23
-1 -35 -12 -19 -15 -20 -16 -8 0 12 15 9 21 -11 18 -5 0 -8 4 -8 9 0 6 -7 10
-16 10 -14 0 -15 -2 -3 -17 13 -16 12 -17 -3 -4 -10 7 -16 17 -13 21 6 9 -19
20 -43 19 -11 0 -12 -2 -4 -6 19 -7 14 -19 -8 -20 -11 -1 -18 2 -15 8 4 5 2 9
-4 9 -33 0 -77 -124 -49 -141 7 -4 13 -22 14 -39 2 -36 -12 -28 -19 10 l-4 25
-2 -27 c0 -15 6 -33 14 -42 17 -16 21 -41 5 -31 -6 3 -9 -13 -7 -42 l2 -48
451 0 c397 0 451 2 447 15 -3 11 -1 10 6 -2 13 -20 96 -24 84 -4 -5 8 -3 8 8
0 8 -6 25 -11 38 -12 l23 -1 -5 137 c-3 75 -10 150 -16 166 -10 24 -15 27 -39
22 -18 -4 -22 -4 -13 3 11 7 10 10 -5 15 -27 8 -54 2 -65 -15 -7 -11 -9 -11
-9 0 0 11 -3 11 -15 1 -16 -13 -21 -35 -6 -26 5 3 14 -1 21 -9 11 -14 10 -14
-15 -5 -16 6 -36 8 -44 5 -14 -4 -14 -4 -1 7 8 7 15 25 16 40 1 24 -1 26 -18
17 -10 -5 -16 -14 -13 -18 2 -5 -3 -8 -13 -7 -9 0 -16 -5 -14 -12 1 -8 -2 -11
-9 -6 -18 11 57 72 101 83 80 20 108 20 152 -2 30 -15 51 -36 68 -67 23 -41
25 -58 28 -187 l4 -143 149 0 149 0 0 900 0 900 -900 0 -900 0 0 -900z m754
679 c70 -23 140 -24 221 -4 87 21 222 29 270 16 33 -9 46 -20 73 -63 46 -77
68 -174 55 -246 -7 -36 -7 -66 -1 -83 6 -18 6 -48 -1 -85 -16 -86 -15 -94 14
-94 21 0 25 -4 20 -22 -43 -191 -77 -313 -95 -338 -48 -67 -254 -186 -367
-211 -48 -11 -65 -10 -127 5 -158 39 -345 156 -384 239 -12 23 -30 96 -41 162
-11 66 -23 134 -27 152 -6 29 -4 31 16 26 22 -6 22 -5 14 63 -5 38 -8 86 -7
107 3 60 3 78 3 149 0 121 57 230 130 248 48 12 163 1 234 -21z m-457 -441 c6
-7 13 -31 17 -53 l7 -40 -20 31 c-33 53 -51 55 -66 7 -5 -19 -1 -25 19 -33 20
-7 26 -16 26 -40 0 -16 4 -30 9 -30 6 0 7 -16 4 -35 -4 -24 0 -43 13 -62 10
-16 17 -34 16 -40 -2 -7 2 -13 8 -13 22 0 25 -2 33 -22 8 -23 2 -38 -17 -38
-27 0 -64 41 -101 114 l-38 74 12 82 c17 112 26 134 49 121 10 -5 23 -16 29
-23z m1251 -82 l15 -96 -38 -76 c-48 -95 -87 -128 -123 -106 -18 12 -1 47 23
47 13 0 20 7 21 21 1 11 9 32 19 47 12 18 15 37 11 57 -3 17 -1 30 4 30 6 0
10 13 10 28 0 21 7 32 24 40 21 9 23 15 17 39 -10 37 -32 40 -54 6 l-18 -28 6
35 c7 39 42 77 58 61 5 -5 16 -52 25 -105z m-1199 -149 c0 -10 -3 -15 -9 -12
-5 3 -9 25 -9 48 1 40 2 40 9 12 4 -16 8 -38 9 -48z m1075 -19 c-14 -20 -16
-20 -9 -3 4 11 10 36 13 55 l7 35 3 -32 c2 -20 -4 -42 -14 -55z m-939 -308 c3
-5 3 -16 -2 -22 -4 -7 -8 -19 -9 -26 -4 -21 17 -83 25 -78 4 3 8 -1 8 -9 0
-11 -8 -13 -26 -8 -34 8 -31 3 -38 60 -7 64 20 119 42 83z m846 -11 c7 -14 8
-41 4 -76 l-7 -54 -41 3 c-23 2 -42 9 -43 16 -1 7 0 8 3 2 15 -31 60 14 50 51
-3 10 -1 19 4 19 5 0 9 7 9 16 0 8 -4 13 -8 10 -4 -2 -8 4 -8 15 0 25 22 24
37 -2z m-801 -89 c0 -13 -1 -13 -10 0 -5 8 -10 22 -10 30 0 13 1 13 10 0 5 -8
10 -22 10 -30z m687 34 c-3 -3 -12 -4 -19 -1 -8 3 -5 6 6 6 11 1 17 -2 13 -5z
m-560 -76 c-3 -7 -5 -2 -5 12 0 14 2 19 5 13 2 -7 2 -19 0 -25z m-117 12 c0
-5 -2 -10 -4 -10 -3 0 -8 5 -11 10 -3 6 -1 10 4 10 6 0 11 -4 11 -10z m185
-48 c-1 -1 -10 0 -19 4 -9 3 -16 17 -16 33 l0 26 19 -30 c10 -16 17 -31 16
-33z m355 34 c0 -18 -8 -27 -32 -35 -17 -6 -33 -10 -34 -8 -5 5 47 67 57 67 5
0 9 -11 9 -24z m-489 -18 c11 -20 10 -21 -3 -11 -8 7 -19 9 -23 5 -5 -4 -4 -1
0 7 6 11 4 13 -9 8 -10 -4 -15 -3 -11 3 11 17 34 11 46 -12z m74 -28 c3 -6 -1
-7 -9 -4 -18 7 -21 14 -7 14 6 0 13 -4 16 -10z m77 -27 c-6 -2 -9 -10 -6 -15
4 -7 2 -8 -5 -4 -13 9 -5 26 12 25 9 0 8 -2 -1 -6z m-65 -20 c0 -9 -4 -10 -14
-2 -7 6 -13 12 -13 14 0 1 6 2 13 2 8 0 14 -6 14 -14z m-67 -13 c8 -15 8 -18
-3 -14 -8 3 -14 11 -14 19 0 20 4 19 17 -5z m274 5 c-5 -12 -10 -13 -20 -4
-19 15 -18 19 6 19 13 0 18 -5 14 -15z m-74 -5 c0 -5 -2 -10 -4 -10 -3 0 -8 5
-11 10 -3 6 -1 10 4 10 6 0 11 -4 11 -10z m130 -40 c-6 -11 -13 -20 -16 -20
-2 0 0 9 6 19 13 25 13 34 0 26 -6 -4 -7 1 -3 11 5 15 7 15 15 0 5 -10 5 -23
-2 -36z m90 34 c-8 -8 -23 -20 -34 -26 -18 -9 -17 -7 4 15 27 27 50 36 30 11z
m-187 -48 c-3 -4 -9 -2 -14 5 -13 22 -11 31 5 17 8 -7 12 -17 9 -22z m124 12
c-3 -8 -6 -5 -6 6 -1 11 2 17 5 13 3 -3 4 -12 1 -19z m341 -3 c-3 -3 -9 2 -12
12 -6 14 -5 15 5 6 7 -7 10 -15 7 -18z m-528 5 c0 -5 -2 -10 -4 -10 -3 0 -8 5
-11 10 -3 6 -1 10 4 10 6 0 11 -4 11 -10z m605 0 c3 -6 -1 -7 -9 -4 -18 7 -21
14 -7 14 6 0 13 -4 16 -10z m-802 -19 c-4 -15 14 -14 20 2 4 9 6 9 6 0 1 -6
-3 -14 -8 -17 -14 -9 -41 5 -41 21 0 8 6 13 13 10 6 -2 11 -10 10 -16z m97 4
c0 -8 -4 -15 -8 -15 -5 0 -9 7 -9 15 0 8 4 15 9 15 4 0 8 -7 8 -15z m516 -23
c2 -11 0 -23 -4 -26 -5 -3 -9 0 -9 7 0 7 -4 20 -8 31 -6 13 -4 17 5 14 7 -2
15 -14 16 -26z m-801 8 c3 -5 1 -10 -4 -10 -6 0 -11 5 -11 10 0 6 2 10 4 10 3
0 8 -4 11 -10z m543 -10 c-12 -19 -28 -27 -28 -14 0 6 30 33 38 34 1 0 -3 -9
-10 -20z m87 8 c3 -3 -1 -8 -10 -11 -8 -4 -15 -1 -15 6 0 9 -3 8 -9 -1 -7 -11
-9 -11 -14 1 -4 10 2 13 18 13 13 -1 27 -4 30 -8z m-140 -26 c-3 -3 -11 0 -18
7 -9 10 -8 11 6 5 10 -3 15 -9 12 -12z m504 -9 c0 -16 -3 -22 -6 -15 -2 6 -8
10 -12 8 -4 -3 -7 4 -7 15 0 10 6 19 13 19 8 0 13 -11 12 -27z m-401 7 c15 -1
15 -2 -2 -11 -14 -9 -22 -7 -35 6 -15 17 -15 17 2 11 10 -3 26 -6 35 -6z m52
2 c0 -5 -7 -9 -15 -9 -8 0 -12 4 -9 9 3 4 9 8 15 8 5 0 9 -4 9 -8z m-375 -11
c3 -5 2 -12 -3 -15 -5 -3 -9 1 -9 9 0 17 3 19 12 6z m-28 -7 c-3 -3 -12 -4
-19 -1 -8 3 -5 6 6 6 11 1 17 -2 13 -5z m243 2 c0 -2 -7 -7 -16 -10 -8 -3 -12
-2 -9 4 6 10 25 14 25 6z m60 -6 c0 -5 -4 -10 -10 -10 -5 0 -10 5 -10 10 0 6
5 10 10 10 6 0 10 -4 10 -10z m-545 -9 c3 -5 2 -12 -3 -15 -5 -3 -9 1 -9 9 0
17 3 19 12 6z m238 -31 c3 6 4 5 3 -1 -1 -7 -10 -13 -19 -15 -9 -1 -14 2 -11
7 3 6 2 16 -3 22 -4 7 -1 5 9 -5 9 -11 18 -14 21 -8z m526 16 c9 -11 9 -16 -1
-22 -7 -4 -10 -4 -6 1 4 4 3 14 -3 22 -6 7 -9 13 -6 13 2 0 10 -6 16 -14z
m218 -31 c0 -8 -4 -12 -9 -9 -5 3 -6 10 -3 15 9 13 12 11 12 -6z m-101 -7 c4
-7 3 -8 -5 -4 -6 4 -20 2 -29 -6 -15 -12 -16 -11 -3 5 16 20 27 22 37 5z
m-876 -19 c0 -5 -4 -9 -10 -9 -5 0 -10 7 -10 16 0 8 5 12 10 9 6 -3 10 -10 10
-16z m165 2 c-3 -6 -11 -11 -16 -11 -5 0 -4 6 3 14 14 16 24 13 13 -3z m575
-1 c0 -5 -5 -10 -11 -10 -5 0 -7 5 -4 10 3 6 8 10 11 10 2 0 4 -4 4 -10z m258
-56 l-3 -39 -5 47 c-3 26 -1 43 3 39 5 -5 7 -26 5 -47z m-854 18 c3 -5 -1 -9
-9 -9 -8 0 -12 4 -9 9 3 4 7 8 9 8 2 0 6 -4 9 -8z m-128 -22 c8 0 14 -5 14
-10 0 -7 -6 -7 -18 -1 -13 7 -23 6 -32 -2 -9 -9 -8 -5 1 11 8 12 15 18 17 12
2 -5 10 -10 18 -10z m32 -5 c-3 -3 -9 2 -12 12 -6 14 -5 15 5 6 7 -7 10 -15 7
-18z m65 -2 c-21 -8 -15 -20 10 -20 272 3 677 -5 677 -13 0 -6 -128 -10 -365
-10 -201 0 -365 2 -365 5 0 10 35 45 45 44 5 0 4 -3 -2 -6z m723 -27 c0 -14
-5 -21 -9 -17 -4 4 -5 15 -1 24 9 24 12 21 10 -7z"/>
<path d="M505 1279 c-11 -7 -28 -19 -38 -27 -16 -14 -16 -16 3 -29 16 -12 20
-23 17 -54 -2 -21 -6 -42 -10 -46 -4 -3 -7 -18 -7 -32 l0 -25 20 22 c29 31 50
28 50 -7 0 -34 39 -71 75 -71 33 0 75 37 75 66 0 27 3 28 32 13 17 -9 19 -8
14 9 -4 11 -2 23 4 27 5 3 10 20 10 36 0 26 3 29 28 27 24 -3 27 0 27 26 0 24
-5 31 -27 37 -16 4 -28 4 -28 -1 0 -4 -28 1 -63 10 -90 25 -158 32 -182 19z
m165 -178 c0 -6 -5 -13 -11 -17 -8 -4 -8 -9 0 -17 17 -17 -7 -37 -44 -37 -18
0 -38 7 -45 15 -18 22 -4 31 25 15 34 -18 56 0 37 30 -11 18 -10 20 13 20 14
0 25 -4 25 -9z"/>
<path d="M1120 1265 c-105 -21 -130 -24 -130 -14 0 19 -40 -16 -49 -43 -11
-30 -10 -31 33 -28 23 1 28 -2 23 -14 -10 -25 26 -86 44 -75 22 14 29 11 29
-15 0 -30 43 -66 77 -66 34 0 76 45 70 76 -3 15 0 24 9 24 24 0 44 -12 44 -28
0 -12 3 -13 11 -5 7 7 8 20 3 34 -4 13 -7 28 -6 33 2 4 -3 14 -9 22 -8 10 -8
14 -1 14 6 0 9 6 6 13 -3 9 6 17 27 23 l31 9 -26 28 c-21 23 -33 27 -73 26
-26 -1 -77 -7 -113 -14z m68 -171 c-9 -9 -21 -13 -27 -10 -20 13 -11 26 16 26
25 0 26 -1 11 -16z m-61 -35 c8 -8 17 -8 32 1 31 16 48 8 27 -13 -21 -20 -69
-22 -85 -4 -18 22 5 37 26 16z"/>
<path d="M916 995 c-4 -63 -4 -124 -1 -136 5 -14 0 -28 -14 -43 -18 -19 -19
-25 -9 -34 10 -8 26 -4 63 16 63 34 67 57 29 190 -45 161 -59 162 -68 7z"/>
<path d="M810 822 c0 -11 41 -34 48 -27 4 4 -2 13 -12 21 -22 15 -36 18 -36 6z"/>
<path d="M670 722 c0 -2 11 -23 25 -47 24 -41 29 -44 89 -54 78 -14 166 -14
201 -1 29 11 112 77 119 95 3 8 -57 11 -215 11 -120 -1 -219 -2 -219 -4z m380
-23 c0 -4 -8 -10 -18 -13 -9 -3 -22 -16 -27 -28 -9 -20 -20 -24 -80 -28 -59
-5 -177 9 -190 21 -2 2 -6 15 -10 29 l-6 25 166 1 c91 0 165 -3 165 -7z"/>
<path d="M824 565 c11 -8 29 -15 41 -15 12 0 30 7 41 15 17 13 14 14 -41 14
-55 0 -58 -1 -41 -14z"/>
</g>
</svg>
